<svg xmlns="http://www.w3.org/2000/svg" viewBox="0 0 100 100" fill="none">
  <defs>
    <linearGradient id="grad" x1="0%" y1="0%" x2="100%" y2="100%">
      <stop offset="0%" style="stop-color:#1a1a1a;stop-opacity:1" />
      <stop offset="100%" style="stop-color:#333333;stop-opacity:1" />
    </linearGradient>
  </defs>
  <!-- Infinity symbol with arrows -->
  <path d="M25 50c0-8.3 6.7-15 15-15 5.5 0 10.3 3 12.9 7.4L60 50l-7.1 7.6C50.3 62 45.5 65 40 65c-8.3 0-15-6.7-15-15z" stroke="url(#grad)" stroke-width="8" fill="none" stroke-linecap="round"/>
  <path d="M75 50c0 8.3-6.7 15-15 15-5.5 0-10.3-3-12.9-7.4L40 50l7.1-7.6C49.7 38 54.5 35 60 35c8.3 0 15 6.7 15 15z" stroke="url(#grad)" stroke-width="8" fill="none" stroke-linecap="round"/>
  <!-- Arrow pointing up-right -->
  <path d="M52 38l8-8m0 0v6m0-6h-6" stroke="url(#grad)" stroke-width="6" stroke-linecap="round" stroke-linejoin="round"/>
  <!-- Arrow pointing down-left -->
  <path d="M48 62l-8 8m0 0v-6m0 6h6" stroke="url(#grad)" stroke-width="6" stroke-linecap="round" stroke-linejoin="round"/>
</svg>
